<svg version="1.1"
	 xmlns="http://www.w3.org/2000/svg" xmlns:xlink="http://www.w3.org/1999/xlink" xmlns:a="http://ns.adobe.com/AdobeSVGViewerExtensions/3.0/"
	 x="0px" y="0px" width="261.4px" height="218.3px" viewBox="0 0 261.4 218.3" enable-background="new 0 0 261.4 218.3"
	 xml:space="preserve">
<defs>
</defs>
<g>
	<path fill="#539E00" d="M219.2,20h-5.9c-1.7,0-2.7,0.9-2.7,2.7v34.7c0,0.3-0.3,0,0,0H232c0.3,0,0,0.3,0,0V34.4
		C221.4,33.7,219.5,28,219.2,20z"/>
	<path fill="#539E00" d="M221.4,6.7c-22.1,0-40,17.9-40,40s17.9,40,40,40s40-17.9,40-40S243.5,6.7,221.4,6.7z M234.7,57.3
		c0,1.5-1.2,2.7-2.7,2.7h-8v14.4c0,1.5-1.2,2.7-2.7,2.7s-2.7-1.2-2.7-2.7V60h-8c-1.5,0-2.7-1.2-2.7-2.7V22.7c0-2.9,2.4-5.3,5.3-5.3
		h8c0,0.8,0,1.3,0,2.7h8c1.7,0,2.7,0.9,2.7,2.7v9.6c1.3,0,1.9,0,2.7,0V57.3z"/>
</g>
<g>
	<path fill="#0082CA" d="M30.5,20.5c0-1-0.5-1.9-1.3-2.4c-0.9-0.5-2.5-0.4-3.5-0.4H22v5.7h4.2c1.1,0,2.3,0.1,3.2-0.6
		C30.1,22.3,30.5,21.3,30.5,20.5 M31.1,31.1c0-1-0.6-2-1.5-2.5c-0.9-0.5-2.1-0.5-3.1-0.5H22v6.3h4.2c1.1,0,2.5,0.1,3.5-0.6
		C30.6,33.3,31.1,32.2,31.1,31.1 M32.1,25.6L32.1,25.6c3.2,0.7,5.5,3.2,5.5,6.6c0,2.3-1.4,4.3-3.2,5.6c-1.9,1.4-4.5,1.4-6.7,1.4
		H15.9V13.1h11.7c2.1,0,4.2,0,6,1.1c2.1,1.3,3.2,3.2,3.2,5.7C36.8,22.9,34.8,24.9,32.1,25.6 M52.3,26.2C52.3,11.7,40.6,0,26.2,0
		C11.7,0,0,11.7,0,26.2c0,14.5,11.7,26.2,26.2,26.2C40.6,52.3,52.3,40.6,52.3,26.2"/>
	<path fill="#1D1D1B" d="M108.9,27.6c-4-11.4-13.5-15.5-25-15.5c-6.1,0-11.7,1.3-16.5,5.4c-4.7,3.9-7.1,9.3-7.1,15.5
		c0,14.4,11.5,17.9,23.3,20.3c4,0.9,11.5,1.9,11.5,7.4s-5.9,7.1-10.3,7.1c-6.8,0-11.8-2.4-13.8-9.3l-14.2,3.3
		C59.7,74.6,71,80,83.4,80c6.6,0,13.8-1.2,19.1-5.4c5.1-3.9,8.2-10.1,8.2-16.5c0-6.5-3.3-12-8.7-15.6c-4.6-3.1-11.8-4.4-17.2-5.6
		c-3.8-0.7-9.5-1.8-9.5-6.6c0-5.1,5-6.2,9.1-6.2c5.9,0,9.4,2.2,11.3,7.8L108.9,27.6z"/>
</g>
<g>
	<path fill="#1D1D1B" d="M36.2,177.3l-12.3-22.5h-4.7v22.5H5.8v-56.6h21.6c2.7,0,5.4,0.3,8,0.8c2.6,0.6,4.9,1.5,7,2.8
		c2.1,1.3,3.7,3.1,4.9,5.3c1.2,2.2,1.8,4.9,1.8,8.2c0,3.8-1,7.1-3.1,9.7c-2.1,2.6-5,4.5-8.6,5.6l14.8,24.2H36.2z M35.6,138.1
		c0-1.3-0.3-2.4-0.8-3.2s-1.3-1.5-2.2-1.9c-0.9-0.5-1.9-0.8-3-0.9c-1.1-0.2-2.2-0.2-3.2-0.2h-7.3v13.2h6.5c1.1,0,2.3-0.1,3.5-0.3
		c1.2-0.2,2.2-0.5,3.2-1c1-0.5,1.8-1.2,2.4-2.1C35.3,140.7,35.6,139.5,35.6,138.1z"/>
	<path fill="#1D1D1B" d="M57.7,177.3v-56.6h13.8v56.6H57.7z"/>
	<path fill="#1D1D1B" d="M125.1,138.1c0,3.3-0.6,6.1-1.8,8.4c-1.2,2.3-2.9,4.1-5,5.5c-2.1,1.4-4.5,2.4-7.2,3c-2.7,0.6-5.5,1-8.5,1
		h-6.8v21.4H82.2v-56.6H103c3.1,0,6,0.3,8.7,0.9c2.7,0.6,5,1.6,7,3c2,1.4,3.6,3.1,4.7,5.4C124.5,132.1,125.1,134.9,125.1,138.1z
		 M111.4,138.2c0-1.3-0.3-2.4-0.8-3.3c-0.5-0.9-1.3-1.5-2.2-2c-0.9-0.5-1.9-0.8-3.1-1c-1.1-0.2-2.3-0.2-3.6-0.2h-6v13.4h5.8
		c1.3,0,2.5-0.1,3.7-0.3c1.2-0.2,2.2-0.6,3.2-1.1c0.9-0.5,1.7-1.2,2.2-2.1C111.2,140.7,111.4,139.5,111.4,138.2z"/>
	<path fill="#1D1D1B" d="M165.5,177.3l-4.4-11.1h-21.9l-4.2,11.1h-14.9l23.8-56.6h13.3l23.5,56.6H165.5z M150.3,135.8l-7.2,19.4
		h14.2L150.3,135.8z"/>
	<path fill="#1D1D1B" d="M184.9,177.3v-56.6H223v11.5h-24.9v10.7h23.5v11h-23.5v11.8h26.3v11.7H184.9z"/>
	<path fill="#1D1D1B" d="M7.7,208.1v2.5H5.5v-24.2h2.2v11.8h0.1c0.6-1,1.5-1.7,2.5-2.2c1-0.5,2.1-0.8,3.2-0.8c1.2,0,2.2,0.2,3.2,0.6
		c0.9,0.4,1.8,1,2.4,1.7s1.2,1.5,1.6,2.5c0.4,1,0.6,2,0.6,3.1c0,1.1-0.2,2.1-0.6,3.1c-0.4,1-0.9,1.8-1.6,2.5s-1.5,1.3-2.4,1.7
		c-1,0.4-2,0.6-3.2,0.6c-1.1,0-2.1-0.2-3.2-0.7C9.2,209.8,8.4,209.1,7.7,208.1L7.7,208.1z M18.8,203.2c0-0.8-0.1-1.6-0.4-2.4
		s-0.6-1.4-1.1-1.9c-0.5-0.5-1.1-1-1.8-1.3c-0.7-0.3-1.5-0.5-2.4-0.5c-0.8,0-1.6,0.2-2.3,0.5c-0.7,0.3-1.3,0.7-1.8,1.3
		s-0.9,1.2-1.2,1.9s-0.4,1.5-0.4,2.4c0,0.9,0.1,1.6,0.4,2.4c0.3,0.7,0.7,1.4,1.2,1.9c0.5,0.5,1.1,1,1.8,1.3c0.7,0.3,1.5,0.5,2.3,0.5
		c0.9,0,1.7-0.2,2.4-0.5c0.7-0.3,1.3-0.7,1.8-1.3c0.5-0.5,0.8-1.2,1.1-1.9C18.7,204.8,18.8,204,18.8,203.2z"/>
	<path fill="#1D1D1B" d="M29.7,208.3L29.7,208.3l4.7-12.6h2.4l-7.5,18.8c-0.4,1.2-1,2.1-1.7,2.8s-1.7,1-3,1c-0.7,0-1.3-0.1-2-0.2
		l0.2-2c0.5,0.2,1,0.3,1.6,0.3c0.7,0,1.3-0.2,1.8-0.7c0.4-0.5,0.8-1.1,1.1-2l1.2-3.1l-6.4-14.9h2.4L29.7,208.3z"/>
	<path fill="#1D1D1B" d="M57.2,210.7c-1.8,0-3.4-0.3-4.9-0.8c-1.5-0.5-2.8-1.3-3.8-2.3c-1.1-1-1.9-2.2-2.5-3.6
		c-0.6-1.4-0.9-3.1-0.9-4.9c0-1.7,0.3-3.3,0.9-4.7c0.6-1.4,1.5-2.7,2.6-3.7c1.1-1,2.4-1.8,3.9-2.4c1.5-0.6,3.1-0.8,4.9-0.8
		c1.7,0,3.4,0.3,4.9,0.8s2.8,1.4,3.9,2.4c1.1,1,1.9,2.2,2.5,3.6c0.6,1.4,0.9,3,0.9,4.7c0,0.9-0.1,1.7-0.3,2.4
		c-0.2,0.8-0.4,1.4-0.8,2.1c-0.3,0.6-0.7,1.2-1.1,1.6c-0.4,0.5-0.8,0.9-1.2,1.2v0.1l4.8-0.1v4.4H57.2z M63.8,199.1
		c0-1-0.2-1.9-0.5-2.7c-0.3-0.8-0.7-1.5-1.3-2.1c-0.6-0.6-1.2-1.1-2-1.4c-0.8-0.3-1.7-0.5-2.6-0.5c-0.9,0-1.8,0.2-2.5,0.5
		c-0.8,0.3-1.5,0.8-2,1.4c-0.6,0.6-1,1.3-1.3,2.1c-0.3,0.8-0.5,1.7-0.5,2.7c0,1,0.2,2,0.5,2.8s0.7,1.6,1.3,2.2
		c0.6,0.6,1.2,1.1,2,1.4c0.8,0.3,1.6,0.5,2.6,0.5c0.9,0,1.8-0.2,2.6-0.5c0.8-0.3,1.5-0.8,2-1.4c0.6-0.6,1-1.3,1.3-2.2
		C63.7,201.1,63.8,200.1,63.8,199.1z"/>
	<path fill="#1D1D1B" d="M83.7,210.7v-2.2h-0.1c-0.2,0.4-0.4,0.7-0.8,1c-0.3,0.3-0.7,0.6-1.1,0.8c-0.4,0.2-0.9,0.4-1.4,0.6
		s-1,0.2-1.6,0.2c-1.1,0-2-0.2-2.7-0.6c-0.7-0.4-1.3-0.9-1.8-1.5c-0.5-0.6-0.8-1.3-1-2.1c-0.2-0.8-0.3-1.6-0.3-2.4v-9.9h5.3v8.6
		c0,0.4,0,0.9,0.1,1.3c0.1,0.4,0.2,0.8,0.4,1.1c0.2,0.3,0.4,0.6,0.7,0.8s0.7,0.3,1.2,0.3c0.9,0,1.6-0.3,2.1-1
		c0.5-0.7,0.7-1.5,0.7-2.4v-8.6h5.2v15.9H83.7z"/>
	<path fill="#1D1D1B" d="M97.7,189.6c0,0.4-0.1,0.8-0.2,1.1c-0.2,0.4-0.4,0.7-0.6,0.9c-0.3,0.3-0.6,0.5-1,0.6
		c-0.4,0.1-0.8,0.2-1.2,0.2c-0.9,0-1.6-0.3-2.1-0.8c-0.6-0.6-0.9-1.2-0.9-2c0-0.4,0.1-0.8,0.2-1.1c0.1-0.4,0.4-0.7,0.6-0.9
		s0.6-0.5,1-0.6s0.8-0.2,1.2-0.2c0.4,0,0.8,0.1,1.2,0.2c0.4,0.1,0.7,0.4,1,0.6c0.3,0.3,0.5,0.6,0.6,0.9
		C97.6,188.9,97.7,189.2,97.7,189.6z M92.1,210.7v-15.9h5.2v15.9H92.1z"/>
	<path fill="#1D1D1B" d="M118.4,202.6c0,1.1-0.2,2.2-0.5,3.2c-0.3,1-0.8,1.9-1.5,2.7c-0.7,0.8-1.4,1.4-2.4,1.9s-2,0.7-3.2,0.7
		c-1,0-1.9-0.2-2.8-0.6c-0.9-0.4-1.6-0.9-2-1.6h-0.1v9.4h-5.2v-23.6h5v2h0.1c0.5-0.6,1.2-1.2,2-1.7c0.9-0.5,1.9-0.7,3.1-0.7
		c1.2,0,2.2,0.2,3.1,0.7c0.9,0.4,1.7,1.1,2.4,1.8c0.7,0.8,1.2,1.7,1.5,2.7C118.2,200.5,118.4,201.5,118.4,202.6z M113.3,202.6
		c0-0.5-0.1-1-0.2-1.5c-0.2-0.5-0.4-0.9-0.7-1.3c-0.3-0.4-0.7-0.7-1.2-0.9c-0.5-0.2-1-0.4-1.6-0.4c-0.6,0-1.1,0.1-1.6,0.4
		c-0.5,0.2-0.9,0.5-1.2,0.9c-0.3,0.4-0.6,0.8-0.8,1.3c-0.2,0.5-0.3,1-0.3,1.5s0.1,1,0.3,1.5c0.2,0.5,0.4,0.9,0.8,1.3
		c0.3,0.4,0.7,0.7,1.2,0.9s1,0.4,1.6,0.4c0.6,0,1.2-0.1,1.6-0.4c0.5-0.2,0.9-0.5,1.2-0.9c0.3-0.4,0.5-0.8,0.7-1.3
		S113.3,203.1,113.3,202.6z"/>
	<path fill="#1D1D1B" d="M131.4,210.7v-2.2h-0.1c-0.2,0.4-0.4,0.7-0.8,1c-0.3,0.3-0.7,0.6-1.1,0.8c-0.4,0.2-0.9,0.4-1.4,0.6
		s-1,0.2-1.6,0.2c-1.1,0-2-0.2-2.7-0.6c-0.7-0.4-1.3-0.9-1.8-1.5c-0.5-0.6-0.8-1.3-1-2.1c-0.2-0.8-0.3-1.6-0.3-2.4v-9.9h5.3v8.6
		c0,0.4,0,0.9,0.1,1.3c0.1,0.4,0.2,0.8,0.4,1.1c0.2,0.3,0.4,0.6,0.7,0.8s0.7,0.3,1.2,0.3c0.9,0,1.6-0.3,2.1-1
		c0.5-0.7,0.7-1.5,0.7-2.4v-8.6h5.2v15.9H131.4z"/>
</g>
<g>
	<path fill="#1D1D1B" d="M150.6,50.8v16.7h-10.4V50.8h-17V40.7h17V24h10.4v16.7h17v10.1H150.6z"/>
</g>
</svg>
