<svg version="1.1"
	 xmlns="http://www.w3.org/2000/svg" xmlns:xlink="http://www.w3.org/1999/xlink" xmlns:a="http://ns.adobe.com/AdobeSVGViewerExtensions/3.0/"
	 x="0px" y="0px" width="291.4px" height="65px" viewBox="0 0 291.4 65" enable-background="new 0 0 291.4 65" xml:space="preserve"
	>
<defs>
</defs>
<g>
	<path fill="#5FB500" d="M144.4,15H140c-1.3,0-2,0.7-2,2v26c0,0.2-0.2,0,0,0h16c0.2,0,0,0.2,0,0V25.8C146,25.3,144.6,21,144.4,15z"
		/>
	<path fill="#5FB500" d="M146,5c-16.6,0-30,13.4-30,30s13.4,30,30,30s30-13.4,30-30S162.6,5,146,5z M156,43c0,1.1-0.9,2-2,2h-6v10.8
		c0,1.1-0.9,2-2,2c-1.1,0-2-0.9-2-2V45h-6c-1.1,0-2-0.9-2-2V17c0-2.2,1.8-4,4-4h6c0,0.6,0,1,0,2h6c1.3,0,2,0.7,2,2v7.2
		c1,0,1.4,0,2,0V43z"/>
</g>
<g>
	<path fill="#333333" d="M190.5,57.2v1.6h-1.9V43h2v7.4h0.1c0.3-0.5,0.8-0.9,1.4-1.2c0.6-0.3,1.3-0.5,2.1-0.5c0.7,0,1.4,0.1,2,0.4
		c0.6,0.3,1.1,0.6,1.6,1.1c0.4,0.5,0.8,1,1,1.7c0.2,0.6,0.4,1.3,0.4,2s-0.1,1.4-0.4,2c-0.2,0.6-0.6,1.2-1,1.7
		c-0.4,0.5-0.9,0.8-1.6,1.1c-0.6,0.3-1.3,0.4-2.1,0.4c-0.7,0-1.4-0.2-2-0.5C191.4,58.2,190.9,57.8,190.5,57.2L190.5,57.2z M197,53.8
		c0-0.5-0.1-0.9-0.2-1.3s-0.3-0.8-0.6-1.1c-0.3-0.3-0.6-0.6-1-0.8c-0.4-0.2-0.9-0.3-1.4-0.3c-0.5,0-1,0.1-1.4,0.3
		c-0.4,0.2-0.8,0.5-1.1,0.8c-0.3,0.3-0.5,0.7-0.7,1.1c-0.2,0.4-0.2,0.9-0.2,1.3s0.1,0.9,0.2,1.3c0.2,0.4,0.4,0.8,0.7,1.1
		c0.3,0.3,0.6,0.6,1.1,0.8c0.4,0.2,0.9,0.3,1.4,0.3c0.5,0,1-0.1,1.4-0.3c0.4-0.2,0.8-0.5,1-0.8c0.3-0.3,0.5-0.7,0.6-1.1
		C197,54.7,197,54.3,197,53.8z"/>
	<path fill="#333333" d="M205.2,56.6L205.2,56.6l2.8-7.7h2.1l-4.8,12.2c-0.2,0.4-0.3,0.8-0.5,1.1s-0.4,0.6-0.7,0.8
		c-0.3,0.2-0.6,0.4-0.9,0.5c-0.4,0.1-0.8,0.2-1.3,0.2c-0.2,0-0.4,0-0.6,0c-0.2,0-0.4-0.1-0.7-0.1l0.2-1.7c0.3,0.1,0.7,0.2,1,0.2
		c0.5,0,0.9-0.1,1.1-0.4s0.5-0.7,0.7-1.2l0.6-1.6l-4.2-9.9h2.2L205.2,56.6z"/>
	<path fill="#333333" d="M224.1,58.7c-1.2,0-2.2-0.2-3.2-0.5s-1.8-0.8-2.5-1.5s-1.2-1.4-1.6-2.4s-0.6-2-0.6-3.2
		c0-1.1,0.2-2.2,0.6-3.1c0.4-0.9,1-1.7,1.7-2.4c0.7-0.7,1.6-1.2,2.5-1.6c1-0.4,2-0.6,3.2-0.6s2.2,0.2,3.2,0.6c1,0.4,1.8,0.9,2.5,1.5
		c0.7,0.7,1.3,1.5,1.7,2.4c0.4,0.9,0.6,1.9,0.6,3.1c0,0.6-0.1,1.1-0.2,1.6c-0.1,0.5-0.3,0.9-0.5,1.3c-0.2,0.4-0.4,0.8-0.7,1.1
		s-0.5,0.6-0.8,0.8V56l3.1-0.1v2.8H224.1z M228.4,51.2c0-0.6-0.1-1.2-0.3-1.8c-0.2-0.5-0.5-1-0.9-1.4c-0.4-0.4-0.8-0.7-1.3-0.9
		c-0.5-0.2-1.1-0.3-1.7-0.3c-0.6,0-1.1,0.1-1.7,0.3c-0.5,0.2-0.9,0.5-1.3,0.9s-0.7,0.9-0.9,1.4c-0.2,0.5-0.3,1.1-0.3,1.8
		c0,0.7,0.1,1.3,0.3,1.8s0.5,1,0.9,1.4c0.4,0.4,0.8,0.7,1.3,0.9c0.5,0.2,1.1,0.3,1.7,0.3c0.6,0,1.2-0.1,1.7-0.3
		c0.5-0.2,1-0.5,1.3-0.9c0.4-0.4,0.7-0.9,0.9-1.4S228.4,51.9,228.4,51.2z"/>
	<path fill="#333333" d="M241.8,58.7v-1.4h0c-0.1,0.2-0.3,0.5-0.5,0.7s-0.4,0.4-0.7,0.5c-0.3,0.2-0.6,0.3-0.9,0.4
		c-0.3,0.1-0.7,0.1-1,0.1c-0.7,0-1.3-0.1-1.8-0.4c-0.5-0.2-0.9-0.6-1.2-1c-0.3-0.4-0.5-0.8-0.6-1.4c-0.1-0.5-0.2-1-0.2-1.6v-6.4h3.4
		V54c0,0.3,0,0.6,0.1,0.8c0,0.3,0.1,0.5,0.2,0.7c0.1,0.2,0.3,0.4,0.5,0.5c0.2,0.1,0.5,0.2,0.8,0.2c0.6,0,1.1-0.2,1.4-0.7
		s0.5-1,0.5-1.6v-5.6h3.4v10.4H241.8z"/>
	<path fill="#333333" d="M251.4,45.1c0,0.3-0.1,0.5-0.2,0.7c-0.1,0.2-0.2,0.4-0.4,0.6c-0.2,0.2-0.4,0.3-0.6,0.4
		c-0.2,0.1-0.5,0.1-0.8,0.1c-0.6,0-1-0.2-1.4-0.6c-0.4-0.4-0.6-0.8-0.6-1.3c0-0.2,0-0.5,0.1-0.7c0.1-0.2,0.2-0.4,0.4-0.6
		c0.2-0.2,0.4-0.3,0.6-0.4s0.5-0.2,0.8-0.2c0.3,0,0.5,0,0.8,0.1c0.2,0.1,0.5,0.2,0.6,0.4c0.2,0.2,0.3,0.4,0.4,0.6
		C251.3,44.6,251.4,44.8,251.4,45.1z M247.7,58.7V48.4h3.4v10.4H247.7z"/>
	<path fill="#333333" d="M265.3,53.5c0,0.7-0.1,1.4-0.3,2.1c-0.2,0.7-0.5,1.3-1,1.8c-0.4,0.5-0.9,0.9-1.6,1.2
		c-0.6,0.3-1.3,0.5-2.1,0.5c-0.6,0-1.2-0.1-1.8-0.4s-1-0.6-1.3-1.1h0v6.1h-3.4V48.4h3.2v1.3h0.1c0.3-0.4,0.8-0.8,1.3-1.1
		c0.6-0.3,1.2-0.5,2-0.5c0.7,0,1.4,0.1,2,0.4c0.6,0.3,1.1,0.7,1.6,1.2c0.4,0.5,0.8,1.1,1,1.7C265.2,52.1,265.3,52.8,265.3,53.5z
		 M262,53.5c0-0.3-0.1-0.7-0.2-1c-0.1-0.3-0.3-0.6-0.5-0.8c-0.2-0.2-0.5-0.4-0.8-0.6c-0.3-0.2-0.7-0.2-1.1-0.2c-0.4,0-0.7,0.1-1,0.2
		c-0.3,0.2-0.6,0.4-0.8,0.6c-0.2,0.2-0.4,0.5-0.5,0.9s-0.2,0.6-0.2,1s0.1,0.7,0.2,1s0.3,0.6,0.5,0.9c0.2,0.2,0.5,0.5,0.8,0.6
		c0.3,0.2,0.7,0.2,1,0.2c0.4,0,0.8-0.1,1.1-0.2c0.3-0.2,0.6-0.4,0.8-0.6c0.2-0.2,0.4-0.5,0.5-0.9C262,54.2,262,53.8,262,53.5z"/>
	<path fill="#333333" d="M274.3,58.7v-1.4h0c-0.1,0.2-0.3,0.5-0.5,0.7s-0.4,0.4-0.7,0.5c-0.3,0.2-0.6,0.3-0.9,0.4
		c-0.3,0.1-0.7,0.1-1,0.1c-0.7,0-1.3-0.1-1.8-0.4c-0.5-0.2-0.9-0.6-1.2-1c-0.3-0.4-0.5-0.8-0.6-1.4c-0.1-0.5-0.2-1-0.2-1.6v-6.4h3.4
		V54c0,0.3,0,0.6,0.1,0.8c0,0.3,0.1,0.5,0.2,0.7c0.1,0.2,0.3,0.4,0.5,0.5c0.2,0.1,0.5,0.2,0.8,0.2c0.6,0,1.1-0.2,1.4-0.7
		s0.5-1,0.5-1.6v-5.6h3.4v10.4H274.3z"/>
</g>
<g>
	<path fill="#333333" d="M201.9,37l-5.7-10.5H194V37h-6.2V10.5h10.1c1.3,0,2.5,0.1,3.7,0.4s2.3,0.7,3.3,1.3c1,0.6,1.7,1.4,2.3,2.5
		c0.6,1,0.9,2.3,0.9,3.8c0,1.8-0.5,3.3-1.5,4.5c-1,1.2-2.3,2.1-4,2.6l6.9,11.3H201.9z M201.7,18.7c0-0.6-0.1-1.1-0.4-1.5
		s-0.6-0.7-1-0.9c-0.4-0.2-0.9-0.4-1.4-0.4c-0.5-0.1-1-0.1-1.5-0.1H194v6.2h3c0.5,0,1.1,0,1.6-0.1c0.6-0.1,1.1-0.2,1.5-0.5
		c0.5-0.2,0.8-0.5,1.1-1C201.5,19.9,201.7,19.3,201.7,18.7z"/>
	<path fill="#333333" d="M212.3,37V10.5h6.4V37H212.3z"/>
	<path fill="#333333" d="M244.2,18.7c0,1.5-0.3,2.8-0.9,3.9c-0.6,1.1-1.3,1.9-2.3,2.6c-1,0.6-2.1,1.1-3.4,1.4
		c-1.3,0.3-2.6,0.4-4,0.4h-3.2v10h-6.4V10.5h9.7c1.4,0,2.8,0.1,4.1,0.4c1.3,0.3,2.4,0.7,3.3,1.4c0.9,0.6,1.7,1.5,2.2,2.5
		C243.9,15.9,244.2,17.2,244.2,18.7z M237.8,18.7c0-0.6-0.1-1.1-0.4-1.5c-0.2-0.4-0.6-0.7-1-0.9c-0.4-0.2-0.9-0.4-1.4-0.4
		c-0.5-0.1-1.1-0.1-1.7-0.1h-2.8v6.2h2.7c0.6,0,1.2,0,1.7-0.1c0.5-0.1,1-0.3,1.5-0.5c0.4-0.2,0.8-0.6,1-1
		C237.7,19.9,237.8,19.4,237.8,18.7z"/>
	<path fill="#333333" d="M263.6,37l-2.1-5.2h-10.2l-1.9,5.2h-6.9l11.1-26.5h6.2l11,26.5H263.6z M256.5,17.6l-3.4,9.1h6.7L256.5,17.6
		z"/>
	<path fill="#333333" d="M273,37V10.5h17.8v5.4h-11.6v5h11v5.1h-11v5.5h12.3V37H273z"/>
</g>
<g>
	<path fill="#0082CA" d="M22.9,15.4c0-0.7-0.3-1.4-1-1.8c-0.7-0.4-1.9-0.3-2.6-0.3h-2.8v4.3h3.1c0.8,0,1.7,0.1,2.4-0.5
		C22.6,16.7,22.9,16,22.9,15.4 M23.3,23.3c0-0.7-0.5-1.5-1.1-1.9c-0.7-0.4-1.6-0.4-2.3-0.4h-3.4v4.7h3.2c0.8,0,1.9,0.1,2.6-0.4
		C22.9,24.9,23.3,24.1,23.3,23.3 M24.1,19.2L24.1,19.2c2.4,0.5,4.1,2.4,4.1,4.9c0,1.7-1,3.2-2.4,4.2c-1.4,1.1-3.3,1.1-5,1.1h-8.8
		V9.8h8.8c1.5,0,3.1,0,4.5,0.9c1.6,1,2.4,2.4,2.4,4.3C27.6,17.2,26.1,18.7,24.1,19.2 M39.3,19.6C39.3,8.8,30.5,0,19.6,0
		C8.8,0,0,8.8,0,19.6c0,10.8,8.8,19.6,19.6,19.6C30.5,39.3,39.3,30.5,39.3,19.6"/>
	<path fill="#1D1D1B" d="M81.7,20.7c-3-8.6-10.1-11.6-18.8-11.6c-4.5,0-8.8,1-12.4,4c-3.5,3-5.3,7-5.3,11.6
		c0,10.8,8.7,13.4,17.5,15.2c3,0.6,8.7,1.4,8.7,5.6s-4.4,5.3-7.7,5.3c-5.1,0-8.9-1.8-10.3-7l-10.7,2.5C44.8,56,53.2,60,62.5,60
		c5,0,10.4-0.9,14.4-4c3.8-3,6.1-7.6,6.1-12.4c0-4.9-2.5-9-6.5-11.7c-3.5-2.3-8.9-3.3-12.9-4.2c-2.8-0.5-7.1-1.4-7.1-5
		c0-3.8,3.8-4.6,6.9-4.6c4.4,0,7.1,1.7,8.5,5.8L81.7,20.7z"/>
</g>
<g>
	<line fill="none" stroke="#333333" stroke-width="4" stroke-miterlimit="10" x1="99" y1="25" x2="99" y2="43"/>
	<line fill="none" stroke="#333333" stroke-width="4" stroke-miterlimit="10" x1="90" y1="34" x2="108" y2="34"/>
</g>
</svg>
