<!-- Generator: Adobe Illustrator 18.0.0, SVG Export Plug-In  -->
<svg version="1.1"
	 xmlns="http://www.w3.org/2000/svg" xmlns:xlink="http://www.w3.org/1999/xlink" xmlns:a="http://ns.adobe.com/AdobeSVGViewerExtensions/3.0/"
	 x="0px" y="0px" width="60px" height="60px" viewBox="0 0 60 60" enable-background="new 0 0 60 60" xml:space="preserve">
<defs>
</defs>
<g>
	<path fill="#5FB500" d="M28.4,10H24c-1.3,0-2,0.7-2,2v26c0,0.2-0.2,0,0,0h16c0.2,0,0,0.2,0,0V20.8C30,20.3,28.6,16,28.4,10z"/>
	<path fill="#5FB500" d="M30,0C13.4,0,0,13.4,0,30s13.4,30,30,30s30-13.4,30-30S46.6,0,30,0z M40,38c0,1.1-0.9,2-2,2h-6v10.8
		c0,1.1-0.9,2-2,2s-2-0.9-2-2V40h-6c-1.1,0-2-0.9-2-2V12c0-2.2,1.8-4,4-4h6c0,0.6,0,1,0,2h6c1.3,0,2,0.7,2,2v7.2c1,0,1.4,0,2,0V38z"
		/>
</g>
</svg>
